{"title":"Aakhiyan - Mirza (The Untold Story) (2012) - Video Song- XviD -","uid":7224954,"size":17878318,"categoryP":"video","categoryS":"music_videos","magnet":"?xt=urn:btih:fb3ccd1a4e14699bc76221a24e49cf42aef01f23&amp;dn=Aakhiyan+-+Mirza+%28The+Untold+Story%29+%282012%29+-+Video+Song-+XviD+-+&amp;tr=udp%3A%2F%2Ftracker.openbittorrent.com%3A80&amp;tr=udp%3A%2F%2Fopen.demonii.com%3A1337&amp;tr=udp%3A%2F%2Ftracker.coppersurfer.tk%3A6969&amp;tr=udp%3A%2F%2Fexodus.desync.com%3A6969","seeders":1,"leechers":0,"uploader":"DiD.DrC","files":1,"time":1335642272,"description":"Aakhiyan - Mirza (The Untold Story) (2012) - Video Song- XviD - MP3 - DrC\n\nFile Info :\n\nGeneral\n\nFormat                                   : AVI\nFormat/Info                              : Audio Video Interleave\nFile size                                : 17.1 MiB\nDuration                                 : 2mn 25s\nOverall bit rate                         : 983 Kbps\n\nVideo\n\nFormat                                   : MPEG-4 Visual\nFormat profile                           : Advanced Simple@L5\nFormat settings, BVOP                    : 2\nFormat settings, QPel                    : Yes\nFormat settings, GMC                     : No warppoints\nFormat settings, Matrix                  : Default (H.263)\nCodec ID                                 : XVID\nCodec ID/Hint                            : XviD\nDuration                                 : 2mn 25s\nBit rate                                 : 897 Kbps\nWidth                                    : 720 pixels\nHeight                                   : 304 pixels\nDisplay aspect ratio                     : 2.35:1\nFrame rate                               : 25.000 fps\nColor space                              : YUV\nChroma subsampling                       : 4:2:0\nBit depth                                : 8 bits\nScan type                                : Progressive\nCompression mode                         : Lossy\nBits/(Pixel*Frame)                       : 0.164\nStream size                              : 15.6 MiB (91%)\nWriting library                          : XviD 1.2.1 (UTC 2008-12-04)\n\nAudio\n\nFormat                                   : MPEG Audio\nFormat version                           : Version 1\nFormat profile                           : Layer 3\nMode                                     : Joint stereo\nMode extension                           : MS Stereo\nCodec ID                                 : 55\nCodec ID/Hint                            : MP3\nDuration                                 : 2mn 24s\nBit rate mode                            : Constant\nBit rate                                 : 80.0 Kbps\nChannel(s)                               : 2 channels\nSampling rate                            : 32.0 KHz\nCompression mode                         : Lossy\nStream size                              : 1.38 MiB (8%)\nAlignment                                : Aligned on interleaves\nInterleave, duration                     : 161 ms (4.02 video frames)\nInterleave, preload duration             : 216 ms\n\n\n\n\nScreenshots :\n &lt;a href=&quot;\nhttp://i.imgur.com/rKsFH.png&quot; rel=&quot;nofollow&quot; target=&quot;_NEW&quot;&gt;\nhttp://i.imgur.com/rKsFH.png&lt;/a&gt; &lt;a href=&quot;\nhttp://i.imgur.com/8k9Pt.png&quot; rel=&quot;nofollow&quot; target=&quot;_NEW&quot;&gt;\nhttp://i.imgur.com/8k9Pt.png&lt;/a&gt; &lt;a href=&quot;\nhttp://i.imgur.com/pt6ni.png&quot; rel=&quot;nofollow&quot; target=&quot;_NEW&quot;&gt;\nhttp://i.imgur.com/pt6ni.png&lt;/a&gt; &lt;a href=&quot;\nhttp://i.imgur.com/unPeK.png&quot; rel=&quot;nofollow&quot; target=&quot;_NEW&quot;&gt;\nhttp://i.imgur.com/unPeK.png&lt;/a&gt;","torrent":{"xt":"urn:btih:fb3ccd1a4e14699bc76221a24e49cf42aef01f23","amp;dn":"Aakhiyan+-+Mirza+%28The+Untold+Story%29+%282012%29+-+Video+Song-+XviD+-+","amp;tr":["udp%3A%2F%2Ftracker.openbittorrent.com%3A80","udp%3A%2F%2Fopen.demonii.com%3A1337","udp%3A%2F%2Ftracker.coppersurfer.tk%3A6969","udp%3A%2F%2Fexodus.desync.com%3A6969"],"infoHash":"fb3ccd1a4e14699bc76221a24e49cf42aef01f23","infoHashBuffer":{"type":"Buffer","data":[251,60,205,26,78,20,105,155,199,98,33,162,78,73,207,66,174,240,31,35]},"announce":[],"urlList":[]}}